<mxfile host="app.diagrams.net" agent="Mozilla/5.0 (Windows NT 10.0; Win64; x64) AppleWebKit/537.36 (KHTML, like Gecko) Chrome/138.0.0.0 YaBrowser/25.8.0.0 Safari/537.36" version="28.2.3">
  <diagram name="Страница — 1" id="6wKeyF5wwAIntv4mze58">
    <mxGraphModel grid="1" page="1" gridSize="10" guides="1" tooltips="1" connect="1" arrows="1" fold="1" pageScale="1" pageWidth="827" pageHeight="1169" math="0" shadow="0">
      <root>
        <mxCell id="0" />
        <mxCell id="1" parent="0" />
        <mxCell id="B0B_SiMH5k4kXzYlV86D-1" value="НАЧАЛО" style="ellipse;whiteSpace=wrap;html=1;fillColor=#FF66FF;" vertex="1" parent="1">
          <mxGeometry x="340" y="20" width="120" height="80" as="geometry" />
        </mxCell>
        <mxCell id="B0B_SiMH5k4kXzYlV86D-2" value="" style="shape=flexArrow;endArrow=classic;html=1;rounded=0;fillColor=#000000;" edge="1" parent="1">
          <mxGeometry width="50" height="50" relative="1" as="geometry">
            <mxPoint x="399.5" y="100" as="sourcePoint" />
            <mxPoint x="399.5" y="150" as="targetPoint" />
          </mxGeometry>
        </mxCell>
        <mxCell id="B0B_SiMH5k4kXzYlV86D-3" value="TIME, LENGHT" style="shape=parallelogram;perimeter=parallelogramPerimeter;whiteSpace=wrap;html=1;fixedSize=1;fillColor=#00FF00;" vertex="1" parent="1">
          <mxGeometry x="335" y="150" width="130" height="30" as="geometry" />
        </mxCell>
        <mxCell id="B0B_SiMH5k4kXzYlV86D-4" value="" style="shape=flexArrow;endArrow=classic;html=1;rounded=0;fillColor=#000000;" edge="1" parent="1">
          <mxGeometry width="50" height="50" relative="1" as="geometry">
            <mxPoint x="399.5" y="180" as="sourcePoint" />
            <mxPoint x="399.5" y="230" as="targetPoint" />
          </mxGeometry>
        </mxCell>
        <mxCell id="B0B_SiMH5k4kXzYlV86D-5" value="SPEED = LENGHT / TIME" style="rounded=0;whiteSpace=wrap;html=1;fillColor=#FF9933;" vertex="1" parent="1">
          <mxGeometry x="325" y="230" width="150" height="40" as="geometry" />
        </mxCell>
        <mxCell id="B0B_SiMH5k4kXzYlV86D-6" value="" style="shape=flexArrow;endArrow=classic;html=1;rounded=0;fillColor=#000000;" edge="1" parent="1">
          <mxGeometry width="50" height="50" relative="1" as="geometry">
            <mxPoint x="399.5" y="270" as="sourcePoint" />
            <mxPoint x="399.5" y="320" as="targetPoint" />
          </mxGeometry>
        </mxCell>
        <mxCell id="B0B_SiMH5k4kXzYlV86D-7" value="КОНЕЦ" style="ellipse;whiteSpace=wrap;html=1;fillColor=#FF66FF;" vertex="1" parent="1">
          <mxGeometry x="340" y="400" width="120" height="80" as="geometry" />
        </mxCell>
        <mxCell id="B0B_SiMH5k4kXzYlV86D-9" value="SPEED" style="shape=parallelogram;perimeter=parallelogramPerimeter;whiteSpace=wrap;html=1;fixedSize=1;fillColor=#66FF66;" vertex="1" parent="1">
          <mxGeometry x="340" y="320" width="120" height="30" as="geometry" />
        </mxCell>
        <mxCell id="B0B_SiMH5k4kXzYlV86D-10" value="" style="shape=flexArrow;endArrow=classic;html=1;rounded=0;fillColor=#000000;" edge="1" parent="1">
          <mxGeometry width="50" height="50" relative="1" as="geometry">
            <mxPoint x="399.5" y="350" as="sourcePoint" />
            <mxPoint x="399.5" y="400" as="targetPoint" />
          </mxGeometry>
        </mxCell>
      </root>
    </mxGraphModel>
  </diagram>
</mxfile>
